<?xml version="1.0" standalone="no"?>
<!DOCTYPE svg PUBLIC "-//W3C//DTD SVG 20010904//EN"
 "http://www.w3.org/TR/2001/REC-SVG-20010904/DTD/svg10.dtd">
<svg version="1.0" xmlns="http://www.w3.org/2000/svg"
 width="400.000000pt" height="400.000000pt" viewBox="0 0 400.000000 400.000000"
 preserveAspectRatio="xMidYMid meet">
<metadata>
Created by potrace 1.14, written by Peter Selinger 2001-2017
</metadata>
<g transform="translate(0.000000,400.000000) scale(0.100000,-0.100000)"
fill="#000000" stroke="none">
<path d="M0 2000 l0 -2000 2000 0 2000 0 0 2000 0 2000 -2000 0 -2000 0 0
-2000z m2556 1072 c12 -29 16 -32 34 -22 19 10 20 8 20 -47 0 -79 8 -105 30
-98 13 4 19 -4 28 -34 7 -21 9 -46 6 -55 -5 -14 -2 -15 20 -6 29 11 30 8 40
-89 6 -61 19 -82 38 -63 7 7 16 12 20 12 12 0 10 -34 -4 -48 -8 -8 -5 -14 15
-21 29 -11 31 -21 17 -91 -11 -57 -1 -70 49 -63 45 6 45 6 68 -117 21 -116 19
-250 -7 -404 -18 -108 -68 -333 -96 -436 -8 -31 0 -23 51 50 22 30 47 64 56
75 51 59 107 126 129 156 14 18 31 39 39 47 25 24 148 122 155 122 3 0 6 -15
6 -34 0 -53 13 -50 40 7 30 64 78 137 90 137 6 0 10 -11 10 -23 0 -44 13 -37
36 20 30 72 45 88 71 74 18 -9 25 -2 63 55 48 73 60 84 60 55 0 -39 17 -30 42
22 14 29 29 62 33 75 9 30 25 18 25 -19 0 -43 16 -36 49 24 46 80 53 88 47 50
-6 -36 11 -45 36 -20 26 26 79 59 85 54 3 -4 -11 -29 -31 -57 -20 -27 -36 -52
-36 -55 0 -3 19 -5 43 -5 l42 0 -52 -51 c-55 -54 -60 -69 -18 -61 38 7 30 -10
-30 -62 -60 -51 -72 -81 -30 -70 14 3 25 3 25 0 0 -8 -82 -114 -119 -154 -17
-18 -31 -34 -31 -36 0 -1 16 0 35 2 46 5 45 -11 -2 -45 -84 -61 -97 -83 -52
-83 10 0 19 -6 19 -14 0 -17 -91 -96 -138 -120 -37 -19 -35 -32 8 -41 39 -8
38 -30 -1 -50 -16 -9 -67 -53 -112 -98 -60 -60 -103 -93 -160 -121 -42 -22
-75 -42 -72 -44 2 -3 32 -4 65 -4 33 0 60 -3 60 -9 0 -5 16 -9 35 -9 22 0 38
-6 41 -15 4 -11 21 -15 56 -15 32 0 47 -4 43 -11 -8 -12 22 -49 40 -49 7 0 15
-9 18 -20 4 -15 14 -20 42 -20 40 0 79 -16 70 -30 -3 -5 -30 -14 -61 -20 -33
-7 -54 -16 -51 -23 2 -6 -14 -25 -36 -40 -37 -27 -45 -29 -98 -23 -50 6 -59 4
-59 -9 0 -12 -12 -15 -54 -15 -32 0 -56 -5 -58 -11 -3 -9 -14 -7 -38 4 -19 8
-64 21 -100 28 -36 7 -97 27 -135 45 -78 36 -140 51 -149 36 -11 -19 433 -457
576 -567 87 -67 391 -280 411 -288 16 -7 -47 -67 -71 -67 -9 0 -67 48 -127
108 -61 59 -146 134 -190 167 -84 63 -393 364 -539 525 l-86 95 0 -52 c0 -29
9 -101 21 -160 26 -132 21 -178 -25 -281 -19 -42 -38 -90 -42 -105 -4 -18 -11
-26 -20 -23 -9 4 -14 -2 -14 -17 0 -27 -10 -41 -31 -49 -9 -4 -21 -27 -28 -53
-8 -33 -16 -45 -26 -41 -8 3 -22 -9 -35 -31 -12 -21 -26 -33 -34 -30 -8 3 -19
-5 -26 -18 -23 -42 -40 -39 -42 8 0 23 0 54 1 70 2 20 -2 27 -15 27 -14 0 -16
7 -10 39 4 26 2 41 -6 43 -8 3 -7 11 5 28 20 29 22 51 3 44 -17 -7 -32 263
-16 315 5 19 8 36 6 39 -6 5 -93 -134 -170 -269 -35 -64 -98 -127 -181 -184
-38 -26 -88 -65 -110 -86 -43 -41 -65 -49 -65 -24 0 23 -11 19 -74 -25 -61
-43 -82 -50 -72 -24 7 19 9 19 -78 -30 -50 -28 -70 -36 -76 -27 -5 10 -17 8
-48 -8 -44 -23 -67 -27 -57 -11 9 14 -5 13 -55 -5 -53 -19 -60 -19 -60 0 0 12
-11 14 -60 8 -72 -7 -77 4 -20 46 37 26 39 31 23 40 -15 8 -11 13 32 31 41 18
47 24 31 29 -16 6 -11 12 34 38 45 26 50 32 35 40 -15 9 -9 16 44 53 33 23 73
59 88 78 25 34 26 35 5 30 -34 -9 -27 4 39 66 43 40 58 60 50 66 -9 5 2 17 33
36 25 16 88 59 138 95 89 62 290 186 333 203 18 8 17 9 -10 17 -45 14 -148 0
-229 -31 -99 -38 -137 -43 -222 -29 -60 9 -74 15 -74 30 0 14 -12 18 -77 24
-98 8 -101 9 -105 37 -2 18 -16 27 -68 44 -53 18 -65 26 -64 42 0 17 -13 26
-67 46 -37 14 -86 26 -108 27 -36 3 -40 5 -35 24 4 18 -4 24 -51 44 -35 14
-52 27 -45 31 7 4 -10 16 -44 31 -31 12 -56 28 -56 34 0 12 -22 26 -75 46 -26
11 -27 13 -10 17 15 4 2 13 -50 38 l-70 33 47 0 c27 1 48 6 50 13 4 10 14 9
48 -1 26 -8 45 -9 49 -3 7 11 130 9 209 -3 39 -6 52 -4 52 5 0 8 8 10 21 7 20
-5 149 9 312 34 111 17 319 -14 535 -80 34 -11 62 -16 62 -12 0 6 -184 111
-262 149 -25 13 -111 98 -168 167 -14 17 -49 48 -78 70 -54 41 -65 72 -24 68
12 -2 22 -1 22 2 0 9 -52 55 -96 86 -42 28 -45 33 -30 44 15 11 14 16 -10 59
-20 36 -23 50 -15 60 9 11 1 23 -41 60 -34 30 -47 46 -35 46 25 0 21 12 -18
50 -38 37 -43 50 -20 50 24 0 18 13 -25 55 -29 28 -36 41 -27 47 8 6 -1 19
-31 44 -26 23 -39 40 -33 44 7 4 -5 21 -30 45 -22 20 -37 40 -31 44 9 6 -5 32
-56 100 l-23 31 23 -9 c13 -5 49 -21 81 -35 51 -23 57 -24 57 -8 1 12 10 6 33
-21 21 -24 38 -36 48 -32 9 3 30 -8 53 -30 38 -36 56 -44 56 -25 0 6 19 -2 43
-18 40 -28 65 -36 60 -20 -5 15 5 8 45 -31 26 -26 47 -38 59 -35 12 3 29 -6
47 -25 33 -34 46 -39 46 -15 0 22 15 9 61 -52 47 -64 76 -72 81 -21 3 31 5 29
63 -60 33 -51 65 -92 71 -93 7 0 14 9 17 21 5 18 9 16 45 -23 54 -59 170 -213
271 -357 46 -67 85 -121 87 -121 7 0 -17 63 -41 112 -50 97 -65 159 -76 297
-6 74 -17 155 -25 180 -13 44 -13 47 7 64 12 9 27 17 35 17 18 0 19 -4 -21 84
-25 56 -31 76 -20 76 10 0 12 9 8 37 l-6 36 26 -19 c15 -10 27 -22 27 -26 0
-5 5 -8 11 -8 11 0 8 53 -8 131 -5 24 -1 30 22 39 24 9 27 14 22 48 -3 20 -9
51 -13 67 -7 27 -6 29 10 16 9 -8 18 -12 21 -9 4 4 -11 70 -29 126 -6 18 -4
22 12 22 22 0 32 33 32 105 0 52 12 66 24 28 5 -15 15 -43 22 -61z"/>
</g>
</svg>
